<svg xmlns="http://www.w3.org/2000/svg" xmlns:xlink="http://www.w3.org/1999/xlink" viewBox="0 0 64 64" version="1.1" x="0px" y="0px"><title>8</title><desc>Created with Sketch.</desc><g stroke="none" stroke-width="1" fill="none" fill-rule="evenodd"><g fill="#000000"><path d="M13,53 C7.4771525,53 3,48.5228475 3,43 C3,37.6810952 7.15260109,33.3320824 12.3926223,33.0181425 C13.9726931,26.1343165 20.1367546,21 27.5,21 C31.7766298,21 35.6487298,22.7319981 38.4531206,25.5328148 C39.5741068,25.1864809 40.7652759,25 42,25 C48.627417,25 54,30.372583 54,37 C54,37.3414322 53.9857405,37.6795339 53.9577846,38.0137421 C57.8867386,38.2503076 61,41.5115832 61,45.5 C61,48.7206797 58.9699366,51.4672127 56.1195986,52.5298102 C55.4760622,52.8314548 54.757714,53 54,53 L13,53 Z"></path><g transform="translate(36.000000, 14.000000)"><circle cx="11" cy="12" r="5"></circle><g transform="translate(10.000000, 0.000000)"><rect x="0" y="0" width="2" height="6" rx="1"></rect><rect x="0" y="18" width="2" height="6" rx="1"></rect></g><g transform="translate(11.000000, 12.000000) rotate(90.000000) translate(-11.000000, -12.000000) translate(10.000000, 0.000000)"><rect x="0" y="0" width="2" height="6" rx="1"></rect><rect x="0" y="18" width="2" height="6" rx="1"></rect></g><g transform="translate(11.000000, 12.000000) rotate(60.000000) translate(-11.000000, -12.000000) translate(10.000000, 0.000000)"><rect x="0" y="0" width="2" height="6" rx="1"></rect><rect x="0" y="18" width="2" height="6" rx="1"></rect></g><g transform="translate(11.000000, 12.000000) rotate(30.000000) translate(-11.000000, -12.000000) translate(10.000000, 0.000000)"><rect x="0" y="0" width="2" height="6" rx="1"></rect><rect x="0" y="18" width="2" height="6" rx="1"></rect></g><g transform="translate(11.000000, 12.000000) rotate(-30.000000) translate(-11.000000, -12.000000) translate(10.000000, 0.000000)"><rect x="0" y="0" width="2" height="6" rx="1"></rect><rect x="0" y="18" width="2" height="6" rx="1"></rect></g><g transform="translate(11.000000, 12.000000) rotate(-60.000000) translate(-11.000000, -12.000000) translate(10.000000, 0.000000)"><rect x="0" y="0" width="2" height="6" rx="1"></rect><rect x="0" y="18" width="2" height="6" rx="1"></rect></g></g></g></g></svg>